<?xml version="1.0" ?><svg height="24" id="svg8" version="1.1" viewBox="0 0 24 24" width="24" xmlns="http://www.w3.org/2000/svg" xmlns:cc="http://creativecommons.org/ns#" xmlns:dc="http://purl.org/dc/elements/1.1/" xmlns:rdf="http://www.w3.org/1999/02/22-rdf-syntax-ns#" xmlns:svg="http://www.w3.org/2000/svg"><defs id="defs2"><rect height="7.0346723" id="rect2504" width="7.9207187" x="-1.1008456" y="289.81766"/></defs><g id="g2405" style="stroke-width:1.04125" transform="matrix(0.96034068,0,0,0.96043061,-0.6114697,0.95505163)"><path d="m 91.5,41.414062 v 1.794922 h -3.134766 v 2.046875 h -1.667968 v 6.371094 h -1.482422 v -2.015625 h -1 v 2.015625 h -2.31836 V 62.585938 H 102.10352 V 51.626953 h -2.38477 v -2.015625 h -1 v 2.015625 H 97.175781 V 45.255859 H 95.380859 V 43.208984 H 92.5 v -1.794922 z m -2.134766,2.794922 h 5.015625 v 1.046875 h -5.015625 z m -1.667968,2.048828 h 8.476562 v 15.326172 h -2.359375 v -3.714843 h -3.755859 v 3.714843 h -2.359375 v -9.957031 h -0.002 z m -3.88086,8.173829 h 1.960938 v 1.001953 h -1.960938 z m 14.341797,0 h 1.960937 v 1.001953 h -1.960937 z m -14.341797,2.173828 h 1.960938 v 1 h -1.960938 z m 14.341797,0 h 1.960937 v 1 h -1.960937 z m -14.341797,2.173828 h 1.960938 v 1 h -1.960938 z m 14.341797,0 h 1.960937 v 1 h -1.960937 z m -7.097656,0.0918 H 92.8125 v 2.71289 h -1.751953 z" id="path1235" style="color:#000000;font-style:normal;font-variant:normal;font-weight:normal;font-stretch:normal;font-size:medium;line-height:normal;font-family:sans-serif;font-variant-ligatures:normal;font-variant-position:normal;font-variant-caps:normal;font-variant-numeric:normal;font-variant-alternates:normal;font-variant-east-asian:normal;font-feature-settings:normal;font-variation-settings:normal;text-indent:0;text-align:start;text-decoration:none;text-decoration-line:none;text-decoration-style:solid;text-decoration-color:#000000;letter-spacing:normal;word-spacing:normal;text-transform:none;writing-mode:lr-tb;direction:ltr;text-orientation:mixed;dominant-baseline:auto;baseline-shift:baseline;text-anchor:start;white-space:normal;shape-padding:0;shape-margin:0;inline-size:0;clip-rule:nonzero;display:inline;overflow:visible;visibility:visible;opacity:1;isolation:auto;mix-blend-mode:normal;color-interpolation:sRGB;color-interpolation-filters:linearRGB;solid-color:#000000;solid-opacity:1;vector-effect:none;fill:#000000;fill-opacity:1;fill-rule:nonzero;stroke:none;stroke-width:1;stroke-linecap:square;stroke-linejoin:miter;stroke-miterlimit:4;stroke-dasharray:none;stroke-dashoffset:0;stroke-opacity:1;paint-order:stroke fill markers;color-rendering:auto;image-rendering:auto;shape-rendering:auto;text-rendering:auto;enable-background:accumulate;stop-color:#000000;stop-opacity:1" transform="matrix(1.0412971,0,0,1.0411996,-82.667048,-42.642383)"/><path d="m 10.478516,6.9785156 c 0,1.0579428 0,2.1158856 0,3.1738284 1.680989,0 3.361979,0 5.042968,0 0,-1.0579428 0,-2.1158856 0,-3.1738284 -1.680989,0 -3.361979,0 -5.042968,0 z m 1.042968,1.0429688 c 0.985677,0 1.971355,0 2.957032,0 0,0.3632812 0,0.7265625 0,1.0898437 -0.985677,0 -1.971355,0 -2.957032,0 0,-0.3632812 0,-0.7265625 0,-1.0898437 z" id="path1239" style="color:#000000;font-style:normal;font-variant:normal;font-weight:normal;font-stretch:normal;font-size:medium;line-height:normal;font-family:sans-serif;font-variant-ligatures:normal;font-variant-position:normal;font-variant-caps:normal;font-variant-numeric:normal;font-variant-alternates:normal;font-variant-east-asian:normal;font-feature-settings:normal;font-variation-settings:normal;text-indent:0;text-align:start;text-decoration:none;text-decoration-line:none;text-decoration-style:solid;text-decoration-color:#000000;letter-spacing:normal;word-spacing:normal;text-transform:none;writing-mode:lr-tb;direction:ltr;text-orientation:mixed;dominant-baseline:auto;baseline-shift:baseline;text-anchor:start;white-space:normal;shape-padding:0;shape-margin:0;inline-size:0;clip-rule:nonzero;display:inline;overflow:visible;visibility:visible;opacity:1;isolation:auto;mix-blend-mode:normal;color-interpolation:sRGB;color-interpolation-filters:linearRGB;solid-color:#000000;solid-opacity:1;vector-effect:none;fill:#000000;fill-opacity:1;fill-rule:nonzero;stroke:none;stroke-width:1.04125;stroke-linecap:square;stroke-linejoin:miter;stroke-miterlimit:4;stroke-dasharray:none;stroke-dashoffset:0;stroke-opacity:1;paint-order:stroke fill markers;color-rendering:auto;image-rendering:auto;shape-rendering:auto;text-rendering:auto;enable-background:accumulate;stop-color:#000000;stop-opacity:1"/><path d="m 10.478516,11.847656 c 0,1.057943 0,2.115885 0,3.173828 1.680989,0 3.361979,0 5.042968,0 0,-1.057943 0,-2.115885 0,-3.173828 -1.680989,0 -3.361979,0 -5.042968,0 z m 1.042968,1.041016 c 0.985677,0 1.971355,0 2.957032,0 0,0.363281 0,0.726563 0,1.089844 -0.985677,0 -1.971355,0 -2.957032,0 0,-0.363281 0,-0.726563 0,-1.089844 z" id="path1243" style="color:#000000;font-style:normal;font-variant:normal;font-weight:normal;font-stretch:normal;font-size:medium;line-height:normal;font-family:sans-serif;font-variant-ligatures:normal;font-variant-position:normal;font-variant-caps:normal;font-variant-numeric:normal;font-variant-alternates:normal;font-variant-east-asian:normal;font-feature-settings:normal;font-variation-settings:normal;text-indent:0;text-align:start;text-decoration:none;text-decoration-line:none;text-decoration-style:solid;text-decoration-color:#000000;letter-spacing:normal;word-spacing:normal;text-transform:none;writing-mode:lr-tb;direction:ltr;text-orientation:mixed;dominant-baseline:auto;baseline-shift:baseline;text-anchor:start;white-space:normal;shape-padding:0;shape-margin:0;inline-size:0;clip-rule:nonzero;display:inline;overflow:visible;visibility:visible;opacity:1;isolation:auto;mix-blend-mode:normal;color-interpolation:sRGB;color-interpolation-filters:linearRGB;solid-color:#000000;solid-opacity:1;vector-effect:none;fill:#000000;fill-opacity:1;fill-rule:nonzero;stroke:none;stroke-width:1.04125;stroke-linecap:square;stroke-linejoin:miter;stroke-miterlimit:4;stroke-dasharray:none;stroke-dashoffset:0;stroke-opacity:1;paint-order:stroke fill markers;color-rendering:auto;image-rendering:auto;shape-rendering:auto;text-rendering:auto;enable-background:accumulate;stop-color:#000000;stop-opacity:1"/></g></svg>